
<region>
sample=..\Samples\clarinet_g3.wav
lokey=24
hikey=24
pitch_keycenter=43

<region>
sample=..\Samples\clarinet_ab3.wav
lokey=25
hikey=25
pitch_keycenter=44

<region>
sample=..\Samples\clarinet_a3.wav
lokey=26
hikey=26
pitch_keycenter=45

<region>
sample=..\Samples\clarinet_g3.wav
lokey=27
hikey=27
pitch_keycenter=43

<region>
sample=..\Samples\clarinet_ab3.wav
lokey=28
hikey=28
pitch_keycenter=44

<region>
sample=..\Samples\clarinet_a3.wav
lokey=29
hikey=29
pitch_keycenter=45

<region>
sample=..\Samples\clarinet_g3.wav
lokey=30
hikey=30
pitch_keycenter=43

<region>
sample=..\Samples\clarinet_ab3.wav
lokey=31
hikey=31
pitch_keycenter=44

<region>
sample=..\Samples\clarinet_a3.wav
lokey=32
hikey=32
pitch_keycenter=45

<region>
sample=..\Samples\clarinet_g3.wav
lokey=33
hikey=33
pitch_keycenter=43

<region>
sample=..\Samples\clarinet_ab3.wav
lokey=34
hikey=34
pitch_keycenter=44

<region>
sample=..\Samples\clarinet_a3.wav
lokey=35
hikey=35
pitch_keycenter=45

<region>
sample=..\Samples\clarinet_g3.wav
lokey=36
hikey=36
pitch_keycenter=43

<region>
sample=..\Samples\clarinet_ab3.wav
lokey=37
hikey=37
pitch_keycenter=44

<region>
sample=..\Samples\clarinet_a3.wav
lokey=38
hikey=38
pitch_keycenter=45

<region>
sample=..\Samples\clarinet_g3.wav
lokey=39
hikey=39
pitch_keycenter=43

<region>
sample=..\Samples\clarinet_ab3.wav
lokey=40
hikey=40
pitch_keycenter=44

<region>
sample=..\Samples\clarinet_a3.wav
lokey=41
hikey=41
pitch_keycenter=45

<region>
sample=..\Samples\clarinet_g3.wav
lokey=42
hikey=42
pitch_keycenter=43

<region>
sample=..\Samples\clarinet_ab3.wav
lokey=43
hikey=43
pitch_keycenter=44

<region>
sample=..\Samples\clarinet_a3.wav
lokey=44
hikey=44
pitch_keycenter=45

<region>
sample=..\Samples\clarinet_g3.wav
lokey=45
hikey=45
pitch_keycenter=43

<region>
sample=..\Samples\clarinet_ab3.wav
lokey=46
hikey=46
pitch_keycenter=44

<region>
sample=..\Samples\clarinet_a3.wav
lokey=47
hikey=47
pitch_keycenter=45

<region>
sample=..\Samples\clarinet_bb3.wav
lokey=48
hikey=48
pitch_keycenter=46

<region>
sample=..\Samples\clarinet_b3.wav
lokey=49
hikey=49
pitch_keycenter=47

<region>
sample=..\Samples\clarinet_c4.wav
lokey=50
hikey=50
pitch_keycenter=48

<region>
sample=..\Samples\clarinet_db4.wav
lokey=51
hikey=51
pitch_keycenter=49

<region>
sample=..\Samples\clarinet_d4.wav
lokey=52
hikey=52
pitch_keycenter=50

<region>
sample=..\Samples\clarinet_eb4.wav
lokey=53
hikey=53
pitch_keycenter=51

<region>
sample=..\Samples\clarinet_e4.wav
lokey=54
hikey=54
pitch_keycenter=52

<region>
sample=..\Samples\clarinet_f4.wav
lokey=55
hikey=55
pitch_keycenter=53

<region>
sample=..\Samples\clarinet_gb4.wav
lokey=56
hikey=56
pitch_keycenter=54

<region>
sample=..\Samples\clarinet_g4.wav
lokey=57
hikey=57
pitch_keycenter=55

<region>
sample=..\Samples\clarinet_ab4.wav
lokey=58
hikey=58
pitch_keycenter=56

<region>
sample=..\Samples\clarinet_a4.wav
lokey=59
hikey=59
pitch_keycenter=57

<region>
sample=..\Samples\clarinet_bb4.wav
lokey=60
hikey=60
pitch_keycenter=58

<region>
sample=..\Samples\clarinet_b4.wav
lokey=61
hikey=61
pitch_keycenter=59

<region>
sample=..\Samples\clarinet_c5.wav
lokey=62
hikey=62

<region>
sample=..\Samples\clarinet_db5.wav
lokey=63
hikey=63
pitch_keycenter=61

<region>
sample=..\Samples\clarinet_d5.wav
lokey=64
hikey=64
pitch_keycenter=62

<region>
sample=..\Samples\clarinet_eb5.wav
lokey=65
hikey=65
pitch_keycenter=63

<region>
sample=..\Samples\clarinet_e5.wav
lokey=66
hikey=66
pitch_keycenter=64

<region>
sample=..\Samples\clarinet_f5.wav
lokey=67
hikey=67
pitch_keycenter=65

<region>
sample=..\Samples\clarinet_gb5.wav
lokey=68
hikey=68
pitch_keycenter=66

<region>
sample=..\Samples\clarinet_g5.wav
lokey=69
hikey=69
pitch_keycenter=67

<region>
sample=..\Samples\clarinet_ab5.wav
lokey=70
hikey=70
pitch_keycenter=68

<region>
sample=..\Samples\clarinet_a5.wav
lokey=71
hikey=71
pitch_keycenter=69

<region>
sample=..\Samples\clarinet_bb5.wav
lokey=72
hikey=72
pitch_keycenter=70

<region>
sample=..\Samples\clarinet_b5.wav
lokey=73
hikey=73
pitch_keycenter=71

<region>
sample=..\Samples\clarinet_c6.wav
lokey=74
hikey=74
pitch_keycenter=72

<region>
sample=..\Samples\clarinet_db6.wav
lokey=75
hikey=75
pitch_keycenter=73

<region>
sample=..\Samples\clarinet_d6.wav
lokey=76
hikey=76
pitch_keycenter=74

<region>
sample=..\Samples\clarinet_eb6.wav
lokey=77
hikey=77
pitch_keycenter=75

<region>
sample=..\Samples\clarinet_e6.wav
lokey=78
hikey=78
pitch_keycenter=76

<region>
sample=..\Samples\clarinet_f6.wav
lokey=79
hikey=79
pitch_keycenter=77

<region>
sample=..\Samples\clarinet_gb6.wav
lokey=80
hikey=80
pitch_keycenter=78

<region>
sample=..\Samples\clarinet_g6.wav
lokey=81
hikey=81
pitch_keycenter=79

<region>
sample=..\Samples\clarinet_ab6.wav
lokey=82
hikey=82
pitch_keycenter=80

<region>
sample=..\Samples\clarinet_a6.wav
lokey=83
hikey=83
pitch_keycenter=81

<region>
sample=..\Samples\clarinet_bb6.wav
lokey=84
hikey=84
pitch_keycenter=82
